<?xml version="1.0" standalone="no"?>
<!DOCTYPE svg PUBLIC "-//W3C//DTD SVG 20010904//EN"
 "http://www.w3.org/TR/2001/REC-SVG-20010904/DTD/svg10.dtd">
<svg version="1.0" xmlns="http://www.w3.org/2000/svg"
 width="700.000000pt" height="700.000000pt" viewBox="0 0 700.000000 700.000000"
 preserveAspectRatio="xMidYMid meet">
<metadata>
Created by potrace 1.14, written by Peter Selinger 2001-2017
</metadata>
<g transform="translate(0.000000,700.000000) scale(0.100000,-0.100000)"
fill="#000000" stroke="none">
<path d="M3397 6744 c-1 -2 -59 -5 -127 -9 -68 -3 -131 -7 -140 -9 -8 -3 -42
-7 -75 -11 -131 -14 -168 -22 -160 -35 3 -4 29 -24 57 -43 29 -20 73 -54 98
-77 46 -43 85 -64 100 -55 8 5 215 15 345 17 78 1 302 -10 325 -17 8 -2 38 -6
65 -10 223 -27 468 -92 721 -193 267 -106 503 -245 765 -452 80 -63 309 -284
379 -365 113 -131 234 -298 319 -440 54 -91 181 -336 181 -349 0 -4 9 -25 20
-49 52 -111 139 -405 169 -572 6 -33 13 -69 15 -80 2 -11 7 -42 10 -70 3 -27
9 -68 13 -90 4 -22 7 -44 8 -50 1 -5 3 -20 3 -32 1 -15 8 -23 20 -23 20 0 56
-60 68 -114 4 -16 7 -251 7 -523 0 -310 4 -490 10 -484 28 28 104 436 115 616
35 592 -48 1086 -263 1580 -49 112 -136 283 -166 327 -11 14 -19 29 -19 32 0
15 -185 288 -225 332 -5 6 -41 50 -80 98 -94 115 -315 331 -450 440 -240 192
-532 364 -800 470 -104 42 -106 43 -152 60 -46 17 -271 83 -306 90 -12 2 -44
10 -72 16 -61 14 -200 37 -275 45 -30 4 -66 8 -80 11 -14 2 -90 6 -170 10 -80
3 -169 7 -198 8 -29 1 -54 1 -55 0z"/>
<path d="M848 6703 c-2 -4 -4 -708 -3 -1563 l0 -1555 720 -2 c396 -1 745 3
775 8 30 5 73 11 95 14 22 4 76 15 120 26 311 78 498 205 605 409 68 131 83
200 86 400 4 233 -17 346 -87 481 -59 110 -138 182 -288 262 l-82 44 68 43
c216 136 338 376 327 643 -8 201 -41 303 -140 444 -124 174 -358 290 -684 339
-67 10 -1507 17 -1512 7z m1397 -587 c161 -45 237 -150 230 -319 -7 -152 -95
-244 -267 -278 -43 -8 -329 -13 -614 -10 l-50 1 0 315 0 314 321 -3 c262 -3
331 -6 380 -20z m21 -1201 c161 -35 238 -101 274 -235 12 -44 16 -202 6 -249
-33 -152 -126 -236 -299 -266 -45 -7 -191 -13 -387 -14 l-316 -2 2 383 c1 211
2 388 3 393 1 7 110 10 320 9 262 -1 332 -4 397 -19z"/>
<path d="M667 5098 c-196 -354 -333 -753 -382 -1118 -3 -25 -8 -56 -10 -70
-27 -179 -27 -751 0 -850 3 -8 6 -31 9 -50 2 -19 9 -64 15 -100 11 -61 15 -83
42 -197 69 -295 201 -617 363 -891 57 -96 184 -284 228 -337 298 -363 545
-581 898 -792 79 -47 342 -183 355 -183 3 0 24 -9 48 -19 251 -113 689 -223
953 -238 l102 -6 -14 54 c-8 29 -14 79 -14 111 0 56 -1 58 -27 58 -72 1 -283
36 -433 71 -629 148 -1189 492 -1605 984 -77 92 -205 264 -252 341 -71 114
-106 177 -164 295 -38 76 -69 143 -69 147 0 5 -7 23 -15 39 -82 165 -182 559
-200 791 -4 39 -10 96 -15 125 -10 67 -10 396 1 507 26 262 86 519 178 768
l61 164 -1 224 c0 123 -4 226 -9 229 -4 3 -24 -23 -43 -57z"/>
<path d="M3406 3591 c-2 -3 -3 -709 -3 -1568 l0 -1563 316 0 316 0 0 1035 c0
569 2 1031 6 1027 3 -4 34 -104 68 -222 34 -118 67 -226 71 -240 5 -14 48
-158 95 -320 47 -162 97 -331 110 -375 24 -81 122 -415 213 -730 l50 -170 265
-2 265 -2 22 57 c17 45 257 841 302 1002 5 19 39 132 74 250 36 118 78 262 95
320 17 58 39 130 49 160 9 30 32 109 51 175 32 112 34 117 39 80 3 -22 7 -481
8 -1020 1 -539 2 -990 2 -1002 l0 -23 310 0 310 0 -2 1568 -3 1567 -457 0
c-394 0 -459 -2 -471 -15 -15 -15 -49 -114 -86 -245 -11 -38 -40 -140 -65
-225 -24 -85 -74 -256 -110 -380 -152 -526 -227 -781 -256 -875 -18 -55 -41
-133 -52 -173 -11 -40 -22 -71 -24 -70 -2 3 -138 472 -157 543 -8 29 -65 225
-76 260 -6 17 -78 269 -160 560 -83 292 -157 550 -165 575 l-13 45 -467 1
c-257 0 -468 -2 -470 -5z"/>
</g>
</svg>
