<?xml version="1.0" encoding="UTF-8" standalone="no"?>
<!DOCTYPE svg PUBLIC "-//W3C//DTD SVG 20010904//EN"
              "http://www.w3.org/TR/2001/REC-SVG-20010904/DTD/svg10.dtd">

<svg xmlns="http://www.w3.org/2000/svg"
     width="11.5623in" height="11.5623in"
     viewBox="0 0 832 832">
  <path id="Selection #1"
        fill="white" stroke="black" stroke-width="1"
        d="M 363.00,34.28
           C 363.00,34.28 383.00,32.00 383.00,32.00
             383.00,32.00 392.00,32.00 392.00,32.00
             392.00,32.00 404.00,31.00 404.00,31.00
             443.97,30.94 480.34,34.41 519.00,45.43
             644.42,81.17 742.29,177.54 780.98,302.00
             794.05,344.05 798.51,386.17 798.00,430.00
             798.00,430.00 797.00,440.00 797.00,440.00
             797.00,440.00 797.00,448.00 797.00,448.00
             795.78,464.61 793.31,481.75 789.65,498.00
             788.31,503.93 785.47,518.20 783.00,523.00
             783.00,523.00 783.00,410.00 783.00,410.00
             783.00,410.00 781.66,399.00 781.66,399.00
             781.66,399.00 776.00,388.00 776.00,388.00
             776.00,388.00 772.00,388.00 772.00,388.00
             766.58,346.94 762.03,319.00 745.99,280.00
             714.12,202.53 655.62,138.12 582.00,98.31
             562.46,87.74 542.04,79.67 521.00,72.67
             496.13,64.38 469.06,59.65 443.00,57.04
             443.00,57.04 434.00,57.04 434.00,57.04
             434.00,57.04 422.00,56.00 422.00,56.00
             422.00,56.00 386.00,57.09 386.00,57.09
             382.90,57.30 373.42,58.89 371.00,58.23
             367.39,57.25 362.06,50.87 359.00,48.18
             353.92,43.73 348.41,42.04 344.00,37.00
             344.00,37.00 363.00,34.28 363.00,34.28 Z
           M 221.00,35.00
           C 258.85,35.00 292.41,33.97 328.00,49.86
             350.47,59.89 367.88,79.27 374.57,103.00
             377.89,114.77 378.14,125.90 378.00,138.00
             377.86,149.30 373.81,164.03 368.51,174.00
             361.82,186.59 353.86,195.53 342.00,203.48
             342.00,203.48 330.00,211.00 330.00,211.00
             344.55,217.27 360.35,226.00 369.84,239.00
             385.54,260.52 386.29,285.61 386.00,311.00
             385.90,318.81 383.76,329.55 381.33,337.00
             373.70,360.41 361.34,374.36 340.00,386.57
             318.84,398.69 282.37,405.96 258.00,406.00
             258.00,406.00 229.00,406.00 229.00,406.00
             229.00,406.00 101.00,406.00 101.00,406.00
             101.00,406.00 101.00,35.00 101.00,35.00
             101.00,35.00 221.00,35.00 221.00,35.00 Z
           M 237.00,178.00
           C 251.78,178.00 265.67,178.57 279.00,170.65
             292.53,162.61 295.17,152.51 295.00,138.00
             294.84,124.97 288.57,114.53 277.00,108.32
             268.49,103.76 255.61,102.12 246.00,102.00
             246.00,102.00 183.00,102.00 183.00,102.00
             183.00,102.00 183.00,178.00 183.00,178.00
             183.00,178.00 237.00,178.00 237.00,178.00 Z
           M 84.87,242.00
           C 84.87,242.00 84.87,266.00 84.87,266.00
             85.00,268.27 85.07,270.79 84.87,273.00
             84.87,273.00 70.72,312.00 70.72,312.00
             59.32,349.86 54.54,387.56 55.00,427.00
             55.00,427.00 55.91,437.00 55.91,437.00
             55.91,437.00 59.58,473.00 59.58,473.00
             74.38,568.35 128.48,655.45 207.00,711.57
             259.70,749.24 322.52,771.78 387.00,777.00
             387.00,788.63 386.43,790.56 390.00,802.00
             357.57,802.00 310.50,790.42 280.00,779.05
             233.17,761.60 189.61,735.02 153.00,700.91
             118.08,668.38 89.05,628.96 68.26,586.00
             12.37,470.52 17.92,329.14 84.00,219.00
             85.80,223.55 85.00,236.47 84.87,242.00 Z
           M 241.00,339.00
           C 256.05,339.00 272.54,339.11 286.00,331.32
             290.87,328.50 295.67,323.90 298.47,319.00
             305.60,306.52 306.05,279.81 299.62,267.00
             296.65,261.08 291.72,256.17 286.00,252.88
             276.18,247.23 260.27,245.14 249.00,245.00
             249.00,245.00 183.00,245.00 183.00,245.00
             183.00,245.00 183.00,339.00 183.00,339.00
             183.00,339.00 241.00,339.00 241.00,339.00 Z
           M 516.00,405.00
           C 516.00,405.00 524.00,434.00 524.00,434.00
             524.00,434.00 538.58,485.00 538.58,485.00
             538.58,485.00 584.00,643.00 584.00,643.00
             584.00,643.00 600.72,588.00 600.72,588.00
             600.72,588.00 637.58,461.00 637.58,461.00
             637.58,461.00 648.58,423.00 648.58,423.00
             648.58,423.00 653.93,406.60 653.93,406.60
             653.93,406.60 662.00,405.00 662.00,405.00
             662.00,405.00 765.00,405.00 765.00,405.00
             765.00,405.00 765.00,777.00 765.00,777.00
             765.00,777.00 692.00,777.00 692.00,777.00
             692.00,777.00 692.00,605.00 692.00,605.00
             692.00,605.00 692.00,552.00 692.00,552.00
             692.00,552.00 691.00,525.00 691.00,525.00
             691.00,525.00 651.72,657.00 651.72,657.00
             651.72,657.00 633.34,719.00 633.34,719.00
             633.34,719.00 620.86,761.00 620.86,761.00
             620.86,761.00 615.30,776.01 615.30,776.01
             615.30,776.01 608.00,777.00 608.00,777.00
             608.00,777.00 553.00,777.00 553.00,777.00
             553.00,777.00 539.72,731.00 539.72,731.00
             539.72,731.00 517.42,655.00 517.42,655.00
             517.42,655.00 492.42,570.00 492.42,570.00
             492.42,570.00 479.00,525.00 479.00,525.00
             479.00,525.00 479.00,777.00 479.00,777.00
             479.00,777.00 405.00,777.00 405.00,777.00
             405.00,777.00 405.00,405.00 405.00,405.00
             405.00,405.00 516.00,405.00 516.00,405.00 Z" />
</svg>
